<?xml version="1.0" encoding="UTF-8" standalone="no"?>
<svg
   id="visual"
   viewBox="0 0 900 600"
   width="900"
   height="600"
   version="1.1"
   sodipodi:docname="bg1.svg"
   inkscape:version="1.1.2 (0a00cf5339, 2022-02-04)"
   xmlns:inkscape="http://www.inkscape.org/namespaces/inkscape"
   xmlns:sodipodi="http://sodipodi.sourceforge.net/DTD/sodipodi-0.dtd"
   xmlns="http://www.w3.org/2000/svg"
   xmlns:svg="http://www.w3.org/2000/svg">
  <defs
     id="defs17" />
  <sodipodi:namedview
     id="namedview15"
     pagecolor="#ffffff"
     bordercolor="#666666"
     borderopacity="1.0"
     inkscape:pageshadow="2"
     inkscape:pageopacity="0.0"
     inkscape:pagecheckerboard="0"
     showgrid="false"
     inkscape:zoom="1.2716667"
     inkscape:cx="495.80603"
     inkscape:cy="300.39318"
     inkscape:window-width="1920"
     inkscape:window-height="935"
     inkscape:window-x="0"
     inkscape:window-y="32"
     inkscape:window-maximized="1"
     inkscape:current-layer="visual" />
  <rect
     x="0"
     y="0"
     width="900"
     height="600"
     fill="#001220"
     id="rect2" />
  <path
     d="M0 215L21.5 212.2C43 209.3 86 203.7 128.8 218.3C171.7 233 214.3 268 257.2 281.2C300 294.3 343 285.7 385.8 280.8C428.7 276 471.3 275 514.2 278.5C557 282 600 290 642.8 293.3C685.7 296.7 728.3 295.3 771.2 279C814 262.7 857 231.3 878.5 215.7L900 200L900 601L878.5 601C857 601 814 601 771.2 601C728.3 601 685.7 601 642.8 601C600 601 557 601 514.2 601C471.3 601 428.7 601 385.8 601C343 601 300 601 257.2 601C214.3 601 171.7 601 128.8 601C86 601 43 601 21.5 601L0 601Z"
     fill="#fa7268"
     id="path4"
     style="fill:#e8827a;fill-opacity:1" />
  <path
     d="M0 237L21.5 249.2C43 261.3 86 285.7 128.8 304.2C171.7 322.7 214.3 335.3 257.2 333.8C300 332.3 343 316.7 385.8 311.5C428.7 306.3 471.3 311.7 514.2 320.2C557 328.7 600 340.3 642.8 342.3C685.7 344.3 728.3 336.7 771.2 330.8C814 325 857 321 878.5 319L900 317L900 601L878.5 601C857 601 814 601 771.2 601C728.3 601 685.7 601 642.8 601C600 601 557 601 514.2 601C471.3 601 428.7 601 385.8 601C343 601 300 601 257.2 601C214.3 601 171.7 601 128.8 601C86 601 43 601 21.5 601L0 601Z"
     fill="#ef5f67"
     id="path6"
     style="fill:#e46a71;fill-opacity:1" />
  <path
     d="M0 324L21.5 323.5C43 323 86 322 128.8 331.2C171.7 340.3 214.3 359.7 257.2 365.3C300 371 343 363 385.8 363.7C428.7 364.3 471.3 373.7 514.2 378.5C557 383.3 600 383.7 642.8 380.7C685.7 377.7 728.3 371.3 771.2 359.5C814 347.7 857 330.3 878.5 321.7L900 313L900 601L878.5 601C857 601 814 601 771.2 601C728.3 601 685.7 601 642.8 601C600 601 557 601 514.2 601C471.3 601 428.7 601 385.8 601C343 601 300 601 257.2 601C214.3 601 171.7 601 128.8 601C86 601 43 601 21.5 601L0 601Z"
     fill="#e34c67"
     id="path8"
     style="fill:#d35c71;fill-opacity:1" />
  <path
     d="M0 387L21.5 395.3C43 403.7 86 420.3 128.8 427.8C171.7 435.3 214.3 433.7 257.2 440C300 446.3 343 460.7 385.8 468C428.7 475.3 471.3 475.7 514.2 472C557 468.3 600 460.7 642.8 459C685.7 457.3 728.3 461.7 771.2 452.7C814 443.7 857 421.3 878.5 410.2L900 399L900 601L878.5 601C857 601 814 601 771.2 601C728.3 601 685.7 601 642.8 601C600 601 557 601 514.2 601C471.3 601 428.7 601 385.8 601C343 601 300 601 257.2 601C214.3 601 171.7 601 128.8 601C86 601 43 601 21.5 601L0 601Z"
     fill="#d53867"
     id="path10"
     style="fill:#c5486e;fill-opacity:1" />
  <path
     d="M0 544L21.5 544.8C43 545.7 86 547.3 128.8 541.7C171.7 536 214.3 523 257.2 519.5C300 516 343 522 385.8 524.5C428.7 527 471.3 526 514.2 526.8C557 527.7 600 530.3 642.8 535.2C685.7 540 728.3 547 771.2 548C814 549 857 544 878.5 541.5L900 539L900 601L878.5 601C857 601 814 601 771.2 601C728.3 601 685.7 601 642.8 601C600 601 557 601 514.2 601C471.3 601 428.7 601 385.8 601C343 601 300 601 257.2 601C214.3 601 171.7 601 128.8 601C86 601 43 601 21.5 601L0 601Z"
     fill="#c62368"
     id="path12"
     style="fill:#b1386b;fill-opacity:1" />
</svg>
