<svg id="visual" viewBox="0 0 900 600" width="900" height="600" xmlns="http://www.w3.org/2000/svg" xmlns:xlink="http://www.w3.org/1999/xlink" version="1.1"><rect x="0" y="0" width="900" height="600" fill="#002233"></rect><path d="M0 287L129 336L257 367L386 320L514 364L643 351L771 346L900 301L900 601L771 601L643 601L514 601L386 601L257 601L129 601L0 601Z" fill="#fcaf3c"></path><path d="M0 328L129 419L257 342L386 430L514 311L643 372L771 385L900 312L900 601L771 601L643 601L514 601L386 601L257 601L129 601L0 601Z" fill="#ff6e45"></path><path d="M0 390L129 445L257 461L386 391L514 460L643 421L771 375L900 407L900 601L771 601L643 601L514 601L386 601L257 601L129 601L0 601Z" fill="#ff006c"></path><path d="M0 508L129 496L257 514L386 464L514 449L643 434L771 461L900 519L900 601L771 601L643 601L514 601L386 601L257 601L129 601L0 601Z" fill="#e600ac"></path><path d="M0 498L129 506L257 521L386 553L514 558L643 545L771 513L900 541L900 601L771 601L643 601L514 601L386 601L257 601L129 601L0 601Z" fill="#6600ff"></path></svg>