<svg id="visual" viewBox="0 0 900 600" width="900" height="600" xmlns="http://www.w3.org/2000/svg" xmlns:xlink="http://www.w3.org/1999/xlink" version="1.1"><rect x="0" y="0" width="900" height="600" fill="#001220"></rect><defs><linearGradient id="grad1_0" x1="33.3%" y1="0%" x2="100%" y2="100%"><stop offset="20%" stop-color="#3cfa7b" stop-opacity="1"></stop><stop offset="80%" stop-color="#3cfa7b" stop-opacity="1"></stop></linearGradient></defs><defs><linearGradient id="grad1_1" x1="33.3%" y1="0%" x2="100%" y2="100%"><stop offset="20%" stop-color="#3cfa7b" stop-opacity="1"></stop><stop offset="80%" stop-color="#001220" stop-opacity="1"></stop></linearGradient></defs><defs><linearGradient id="grad2_0" x1="0%" y1="0%" x2="66.7%" y2="100%"><stop offset="20%" stop-color="#3cfa7b" stop-opacity="1"></stop><stop offset="80%" stop-color="#3cfa7b" stop-opacity="1"></stop></linearGradient></defs><defs><linearGradient id="grad2_1" x1="0%" y1="0%" x2="66.7%" y2="100%"><stop offset="20%" stop-color="#001220" stop-opacity="1"></stop><stop offset="80%" stop-color="#3cfa7b" stop-opacity="1"></stop></linearGradient></defs><g transform="translate(900, 0)"><path d="M0 432.7C-64.2 434.5 -128.4 436.4 -165.6 399.7C-202.7 363.1 -212.8 287.9 -243.2 243.2C-273.7 198.6 -324.4 184.3 -359.4 148.9C-394.3 113.4 -413.5 56.7 -432.7 0L0 0Z" fill="#00808f"></path><path d="M0 216.3C-32.1 217.3 -64.2 218.2 -82.8 199.9C-101.4 181.5 -106.4 144 -121.6 121.6C-136.8 99.3 -162.2 92.2 -179.7 74.4C-197.2 56.7 -206.8 28.3 -216.3 0L0 0Z" fill="#3cfa7b"></path></g><g transform="translate(0, 600)"><path d="M0 -432.7C30.2 -361.8 60.4 -290.9 115.6 -279C170.8 -267.2 251 -314.4 304.1 -304.1C357.1 -293.7 382.8 -225.8 399.7 -165.6C416.6 -105.3 424.6 -52.7 432.7 0L0 0Z" fill="#00808f"></path><path d="M0 -216.3C15.1 -180.9 30.2 -145.4 57.8 -139.5C85.4 -133.6 125.5 -157.2 152 -152C178.5 -146.9 191.4 -112.9 199.9 -82.8C208.3 -52.7 212.3 -26.3 216.3 0L0 0Z" fill="#3cfa7b"></path></g></svg>