<svg id="visual" viewBox="0 0 900 600" width="900" height="600" xmlns="http://www.w3.org/2000/svg" xmlns:xlink="http://www.w3.org/1999/xlink" version="1.1"><rect x="0" y="0" width="900" height="600" fill="#001220"></rect><path d="M538 600L500.7 585.7C463.3 571.3 388.7 542.7 364.3 514.2C340 485.7 366 457.3 388.2 428.8C410.3 400.3 428.7 371.7 441.5 343C454.3 314.3 461.7 285.7 451.3 257C441 228.3 413 199.7 423.3 171.2C433.7 142.7 482.3 114.3 475.2 85.8C468 57.3 405 28.7 373.5 14.3L342 0L900 0L900 14.3C900 28.7 900 57.3 900 85.8C900 114.3 900 142.7 900 171.2C900 199.7 900 228.3 900 257C900 285.7 900 314.3 900 343C900 371.7 900 400.3 900 428.8C900 457.3 900 485.7 900 514.2C900 542.7 900 571.3 900 585.7L900 600Z" fill="#fa69c1"></path><path d="M532 600L524 585.7C516 571.3 500 542.7 513.7 514.2C527.3 485.7 570.7 457.3 561 428.8C551.3 400.3 488.7 371.7 460.8 343C433 314.3 440 285.7 453.3 257C466.7 228.3 486.3 199.7 485.5 171.2C484.7 142.7 463.3 114.3 481.3 85.8C499.3 57.3 556.7 28.7 585.3 14.3L614 0L900 0L900 14.3C900 28.7 900 57.3 900 85.8C900 114.3 900 142.7 900 171.2C900 199.7 900 228.3 900 257C900 285.7 900 314.3 900 343C900 371.7 900 400.3 900 428.8C900 457.3 900 485.7 900 514.2C900 542.7 900 571.3 900 585.7L900 600Z" fill="#d854c3"></path><path d="M642 600L623.8 585.7C605.7 571.3 569.3 542.7 573.7 514.2C578 485.7 623 457.3 644 428.8C665 400.3 662 371.7 637.3 343C612.7 314.3 566.3 285.7 544.8 257C523.3 228.3 526.7 199.7 537.2 171.2C547.7 142.7 565.3 114.3 578.2 85.8C591 57.3 599 28.7 603 14.3L607 0L900 0L900 14.3C900 28.7 900 57.3 900 85.8C900 114.3 900 142.7 900 171.2C900 199.7 900 228.3 900 257C900 285.7 900 314.3 900 343C900 371.7 900 400.3 900 428.8C900 457.3 900 485.7 900 514.2C900 542.7 900 571.3 900 585.7L900 600Z" fill="#b045c5"></path><path d="M696 600L704.5 585.7C713 571.3 730 542.7 738.5 514.2C747 485.7 747 457.3 740.7 428.8C734.3 400.3 721.7 371.7 714.2 343C706.7 314.3 704.3 285.7 705.7 257C707 228.3 712 199.7 704 171.2C696 142.7 675 114.3 659 85.8C643 57.3 632 28.7 626.5 14.3L621 0L900 0L900 14.3C900 28.7 900 57.3 900 85.8C900 114.3 900 142.7 900 171.2C900 199.7 900 228.3 900 257C900 285.7 900 314.3 900 343C900 371.7 900 400.3 900 428.8C900 457.3 900 485.7 900 514.2C900 542.7 900 571.3 900 585.7L900 600Z" fill="#7d3cc7"></path><path d="M812 600L816.7 585.7C821.3 571.3 830.7 542.7 830.8 514.2C831 485.7 822 457.3 812 428.8C802 400.3 791 371.7 776 343C761 314.3 742 285.7 733 257C724 228.3 725 199.7 743.7 171.2C762.3 142.7 798.7 114.3 803.2 85.8C807.7 57.3 780.3 28.7 766.7 14.3L753 0L900 0L900 14.3C900 28.7 900 57.3 900 85.8C900 114.3 900 142.7 900 171.2C900 199.7 900 228.3 900 257C900 285.7 900 314.3 900 343C900 371.7 900 400.3 900 428.8C900 457.3 900 485.7 900 514.2C900 542.7 900 571.3 900 585.7L900 600Z" fill="#2438c7"></path></svg>