<svg id="visual" viewBox="0 0 900 600" width="900" height="600" xmlns="http://www.w3.org/2000/svg" xmlns:xlink="http://www.w3.org/1999/xlink" version="1.1"><g stroke-width="1" stroke-linejoin="bevel"><path d="M412 318L313 329L429 431Z" fill="#002d39" stroke="#002d39"></path><path d="M313 329L266 485L429 431Z" fill="#7e8f30" stroke="#7e8f30"></path><path d="M301 128L186 304L313 329Z" fill="#a69729" stroke="#a69729"></path><path d="M313 329L157 446L266 485Z" fill="#004b49" stroke="#004b49"></path><path d="M186 304L157 446L313 329Z" fill="#1c694a" stroke="#1c694a"></path><path d="M299 600L412 600L266 485Z" fill="#004b49" stroke="#004b49"></path><path d="M266 485L412 600L429 431Z" fill="#00101c" stroke="#00101c"></path><path d="M136 600L299 600L266 485Z" fill="#003c43" stroke="#003c43"></path><path d="M412 600L587 475L429 431Z" fill="#7e8f30" stroke="#7e8f30"></path><path d="M429 431L596 291L412 318Z" fill="#003c43" stroke="#003c43"></path><path d="M587 475L596 291L429 431Z" fill="#1c694a" stroke="#1c694a"></path><path d="M412 318L301 128L313 329Z" fill="#1c694a" stroke="#1c694a"></path><path d="M428 116L301 128L412 318Z" fill="#004b49" stroke="#004b49"></path><path d="M596 291L428 116L412 318Z" fill="#003c43" stroke="#003c43"></path><path d="M157 446L136 600L266 485Z" fill="#004b49" stroke="#004b49"></path><path d="M412 600L630 600L587 475Z" fill="#1c694a" stroke="#1c694a"></path><path d="M587 475L738 331L596 291Z" fill="#004b49" stroke="#004b49"></path><path d="M301 128L114 144L186 304Z" fill="#1c694a" stroke="#1c694a"></path><path d="M186 304L0 340L157 446Z" fill="#002d39" stroke="#002d39"></path><path d="M157 446L0 450L136 600Z" fill="#7e8f30" stroke="#7e8f30"></path><path d="M180 0L114 144L301 128Z" fill="#001e2b" stroke="#001e2b"></path><path d="M710 183L605 121L596 291Z" fill="#004b49" stroke="#004b49"></path><path d="M596 291L605 121L428 116Z" fill="#00101c" stroke="#00101c"></path><path d="M114 144L0 340L186 304Z" fill="#004b49" stroke="#004b49"></path><path d="M774 465L738 331L587 475Z" fill="#7e8f30" stroke="#7e8f30"></path><path d="M0 340L0 450L157 446Z" fill="#005a4c" stroke="#005a4c"></path><path d="M605 121L432 0L428 116Z" fill="#001e2b" stroke="#001e2b"></path><path d="M428 116L432 0L301 128Z" fill="#005a4c" stroke="#005a4c"></path><path d="M738 331L710 183L596 291Z" fill="#00101c" stroke="#00101c"></path><path d="M605 121L636 0L432 0Z" fill="#1c694a" stroke="#1c694a"></path><path d="M432 0L266 0L301 128Z" fill="#3a7744" stroke="#3a7744"></path><path d="M731 600L774 465L587 475Z" fill="#002d39" stroke="#002d39"></path><path d="M900 146L731 0L710 183Z" fill="#001e2b" stroke="#001e2b"></path><path d="M630 600L731 600L587 475Z" fill="#003c43" stroke="#003c43"></path><path d="M266 0L180 0L301 128Z" fill="#5a843a" stroke="#5a843a"></path><path d="M114 144L0 157L0 340Z" fill="#004b49" stroke="#004b49"></path><path d="M0 450L0 600L136 600Z" fill="#005a4c" stroke="#005a4c"></path><path d="M0 0L0 157L114 144Z" fill="#a69729" stroke="#a69729"></path><path d="M731 0L636 0L605 121Z" fill="#001e2b" stroke="#001e2b"></path><path d="M900 293L710 183L738 331Z" fill="#002d39" stroke="#002d39"></path><path d="M710 183L731 0L605 121Z" fill="#002d39" stroke="#002d39"></path><path d="M180 0L0 0L114 144Z" fill="#004b49" stroke="#004b49"></path><path d="M900 600L900 432L774 465Z" fill="#001e2b" stroke="#001e2b"></path><path d="M774 465L900 432L738 331Z" fill="#005a4c" stroke="#005a4c"></path><path d="M900 432L900 293L738 331Z" fill="#a69729" stroke="#a69729"></path><path d="M731 600L900 600L774 465Z" fill="#1c694a" stroke="#1c694a"></path><path d="M900 293L900 146L710 183Z" fill="#7e8f30" stroke="#7e8f30"></path><path d="M900 146L900 0L731 0Z" fill="#3a7744" stroke="#3a7744"></path></g></svg>