<?xml version="1.0" encoding="UTF-8" standalone="no"?>
<svg
   width="800"
   height="800"
   version="1.1"
   id="svg4"
   sodipodi:docname="github-mark.svg"
   inkscape:version="1.1.2 (0a00cf5339, 2022-02-04)"
   xmlns:inkscape="http://www.inkscape.org/namespaces/inkscape"
   xmlns:sodipodi="http://sodipodi.sourceforge.net/DTD/sodipodi-0.dtd"
   xmlns="http://www.w3.org/2000/svg"
   xmlns:svg="http://www.w3.org/2000/svg">
  <defs
     id="defs8" />
  <sodipodi:namedview
     id="namedview6"
     pagecolor="#ffffff"
     bordercolor="#666666"
     borderopacity="1.0"
     inkscape:pageshadow="2"
     inkscape:pageopacity="0.0"
     inkscape:pagecheckerboard="0"
     showgrid="false"
     width="800px"
     inkscape:zoom="0.49674479"
     inkscape:cx="223.45478"
     inkscape:cy="523.4076"
     inkscape:window-width="1920"
     inkscape:window-height="935"
     inkscape:window-x="0"
     inkscape:window-y="32"
     inkscape:window-maximized="1"
     inkscape:current-layer="svg4" />
  <path
     fill-rule="evenodd"
     clip-rule="evenodd"
     d="M 400.33098,0 C 178.95829,0 0,183.33257 0,410.13995 c 0,181.29924 114.66474,334.76527 273.73514,389.08171 19.88789,4.08334 27.17275,-8.82496 27.17275,-19.68325 0,-9.5083 -0.65556,-42.09983 -0.65556,-76.05802 -111.36238,24.4499 -134.55264,-48.89146 -134.55264,-48.89146 -17.89665,-47.53313 -44.41384,-59.74975 -44.41384,-59.74975 -36.44885,-25.12489 2.65499,-25.12489 2.65499,-25.12489 40.43135,2.71665 61.64675,42.09982 61.64675,42.09982 35.7851,62.4664 93.44935,44.81648 116.6478,33.94986 3.31055,-26.48323 13.92234,-44.81648 25.18969,-54.99977 -88.81949,-9.5083 -182.26884,-44.81648 -182.26884,-202.35749 0,-44.81648 15.89721,-81.48299 41.0869,-109.99954 -3.9743,-10.18329 -17.89665,-52.29145 3.9825,-108.64955 0,0 33.80205,-10.86662 110.0185,42.09983 a 384.89266,391.41503 0 0 1 100.08684,-13.58328 c 33.80205,0 68.25965,4.75832 100.07865,13.58328 76.22464,-52.96645 110.02667,-42.09983 110.02667,-42.09983 21.8792,56.3581 7.9486,98.46626 3.9743,108.64955 25.8535,28.51655 41.0951,65.18306 41.0951,109.99954 0,157.54101 -93.44933,192.16586 -182.93257,202.35749 14.58609,12.89994 27.17275,37.34151 27.17275,76.04968 0,54.99977 -0.65556,99.14125 -0.65556,112.71619 0,10.86663 7.29305,23.77493 27.17275,19.69992 C 685.3335,744.89689 799.9982,591.43919 799.9982,410.13995 800.6538,183.33257 621.0399,0 400.33098,0 Z"
     fill="#e8eaed"
     id="path2"
     style="stroke-width:8.26357" />
</svg>
